<?xml version="1.0" encoding="iso-8859-1"?>
<!-- Generator: Adobe Illustrator 19.0.0, SVG Export Plug-In . SVG Version: 6.00 Build 0)  -->
<svg version="1.1" id="Layer_1" xmlns="http://www.w3.org/2000/svg" xmlns:xlink="http://www.w3.org/1999/xlink" x="0px" y="0px"
	 viewBox="0 0 512 512" style="enable-background:new 0 0 512 512;" xml:space="preserve">
<g>
	<g>
		<g>
			<path d="M404.682,383.45c1.532-1.06,1.674-3.268,0.298-4.525l-102.123-93.357c19.961-33.154,20.905-74.46,2.88-108.387
				l56.855-46.674c1.438-1.182,1.415-3.392-0.055-4.532c-9.692-7.52-17.648-17.136-23.207-28.296
				c-0.831-1.668-2.996-2.124-4.438-0.942l-56.874,46.688c-40.339-33.013-98.91-32.956-139.162-0.045l-17.113-14.068
				c-1.466-1.206-3.673-0.708-4.473,1.013c-5.241,11.282-13.131,20.834-23.143,28.135c-1.533,1.118-1.594,3.378-0.128,4.583
				l17.12,14.074c-22.265,41.788-15.181,93.948,18.056,128.26l-21.106,30.641c-1.034,1.501-0.457,3.587,1.217,4.307
				c11.365,4.886,21.598,11.928,30.28,20.886c1.27,1.309,3.426,1.105,4.459-0.396l21.118-30.659
				c35.676,15.255,76.977,10.451,108.229-12.367l102.084,93.319c1.37,1.254,3.547,0.922,4.473-0.689
				C385.822,400.173,394.131,390.755,404.682,383.45z"/>
			<path d="M473.415,394.808c-50.047-19.415-98.954,31.114-77.114,80.669c9.8,22.236,30.969,36.05,55.246,36.05
				c33.335,0,60.452-27.118,60.452-60.451C512,425.986,496.856,403.9,473.415,394.808z"/>
			<path d="M51.129,150.665c28.249,0,51.13-22.893,51.13-51.129c0-28.194-22.936-51.13-51.13-51.13C22.936,48.406,0,71.343,0,99.536
				C0,127.728,22.936,150.665,51.129,150.665z"/>
			<path d="M113.081,367.249C65.557,334.513,0.118,368.545,0.118,426.617c0,39.746,32.33,72.082,72.07,72.082
				c39.748,0,72.084-32.336,72.084-72.082C144.272,402.939,132.622,380.753,113.081,367.249z"/>
			<path d="M412.937,121.375c33.333,0,60.451-27.118,60.451-60.451S446.27,0.473,412.937,0.473
				c-33.333,0-60.451,27.118-60.451,60.451C352.486,93.794,379.036,121.375,412.937,121.375z"/>
		</g>
	</g>
</g>
<g>
</g>
<g>
</g>
<g>
</g>
<g>
</g>
<g>
</g>
<g>
</g>
<g>
</g>
<g>
</g>
<g>
</g>
<g>
</g>
<g>
</g>
<g>
</g>
<g>
</g>
<g>
</g>
<g>
</g>
</svg>
